<svg xmlns="http://www.w3.org/2000/svg" width="283" height="116" stroke="none" stroke-linecap="round" stroke-linejoin="round" fill="#fff" fill-rule="evenodd"><path d="M259.9067 98.967h8.2644l14.2961-51.0544h-8.1801l-5.9095 25.427-6.2257-25.427h-9.1289l10.8718 36.8776zm-41.015-38.9347v26.1711h-8.3386V47.9126h5.8585l1.7403 3.3439c2.2683-2.6747 4.6951-4.2377 7.4934-4.2377 3.7461 0 6.5957 1.563 8.3386 5.4286 2.5316-3.2746 5.2235-5.4286 8.6546-5.4286 6.4355 0 10.1833 4.6868 10.1833 17.3998v21.7848h-8.347V65.7548c0-5.8722-1.6892-7.585-4.3811-7.585-1.5839 0-2.9011.5944-4.3784 1.9339.1102 1.4318.1619 2.8705.1586 4.3115v21.7837h-8.3386V65.7513c0-5.8722-1.6892-7.585-4.4322-7.585-1.5329 0-2.7984.5219-4.2248 1.8592zm-29.0774 3.2702h10.7116c-.5795-4.9807-2.4801-7.3604-5.3301-7.3604-2.4289 0-4.7487 2.0088-5.3837 7.3604zm5.9632 23.6428c-8.0215 0-14.4594-5.5761-14.4594-20.2945 0-13.7553 6.2283-19.7023 13.4035-19.7023 8.6543 0 12.5069 8.5491 12.5069 22.0061H189.761c.5817 6.6162 3.4832 8.5513 7.3358 8.5513 3.7257 0 6.6405-1.2936 8.895-3.4326l-1.1324 9.3174c-2.1528 2.3601-4.7345 3.5396-9.0819 3.5396zm-31.0458-9.8875c1.8983 0 3.3241-.4469 4.8015-2.0054V58.3968c-1.3188-1.1151-2.6376-1.6346-4.5386-1.6346-4.0624 0-6.3844 3.8656-6.3844 10.3332 0 6.3214 2.3736 9.9659 6.121 9.9659zm6.437 6.3214c-2.1635 2.3047-4.6431 3.717-8.1796 3.717-7.4406 0-12.8212-6.4688-12.8212-19.7784 0-13.2325 6.1741-20.3705 14.089-20.3705 1.8451 0 3.6413.3709 5.263 1.2636V31.9607h8.3404v54.2451h-5.2764zM114.8398 63.527V35.1467h8.6543v28.1558c0 10.1108 3.2292 12.1923 7.6498 12.1923 4.8038 0 7.2839-2.973 7.2839-12.1923V35.1467h8.7062v28.3769c0 16.7305-5.1699 23.7176-16.411 23.7176-10.4488 0-15.8836-6.0207-15.8836-23.7176z" fill="#645a53"/><path d="M98.3176 65.6529c-.3391-.3928-.7439-.6577-1.176-.7797-2.5385 3.5638-5.623 7.3199-8.3865 9.8448-1.2682 1.1876-2.8652 1.7819-3.9216 1.7819-2.4321 0-3.4895-3.2712-3.8068-8.4626-.4218-6.979-.7088-15.3345-.7088-28.2514 0-13.2497-2.1337-22.2548-7.8179-22.9597-.2447-.0312-.4896-.0495-.7354-.0496-3.4902 0-5.1804 2.5226-7.4024 8.9072L54.0021 54.3349c-4.7585 13.0642-10.0446 24.6449-14.5932 32.664-1.2663 2.2209-2.2673 3.7482-3.2068 4.6189-.628.5818-1.2317.8755-1.8663.8755-1.7945 0-3.1043-2.1333-3.5411-7.1034-.1037-1.1795-.1591-2.5214-.1591-4.0316 0-10.2444 2.752-26.8702 7.507-51.3677C41.6302 12.1715 40.1491 0 32.5355 0h-.0838-.0047c-1.723.0288-3.1533.91-4.5308 2.4361-1.3556 1.5043-2.7117 4.7537-3.979 9.1193-1.4273 4.9194-10.1094 29.455-23.9277 42.0965-.1621 4.8043 1.7682 9.6086 5.6803 10.1143 3.5619.4757 6.09-1.6402 9.3478-4.7202l-1.2918 8.2356-.4548 2.9211c-.4301 2.7529-.7588 5.5346-.9849 8.3359-1.9499 24.5379 6.123 36.6461 15.5772 36.6461 1.579 0 3.1459-.2649 4.6993-.8202 10.4148-3.7205 20.4422-20.5546 32.3097-59.3039-.179 4.2146-.1986 8.1528-.0689 11.8053.7939 22.2236 7.0148 28.8882 15.824 28.8882 6.6614 0 12.9003-4.8987 16.0723-10.9862 2.3266-4.3056 3.2776-9.057 3.2776-12.7671 0-2.882-.6479-5.1799-1.6797-6.3479" fill="#ea5252"/></svg>